# xmcd
#
# Track frame offsets:
# 150
# 20958
# 39787
# 59717
# 76001
# 95675
# 123172
# 143126
# 166379
# 181901
# 203105
#
# Disc length: 3002 seconds
#
# Revision: 0
# Processed by: cddbd v1.5.2PL0 Copyright (c) Steve Scherf et al.
# Submitted via: Axialis_AX_CDPlayer 2.6
#
DISCID=900bb80b
DTITLE=Waylon Jennings - Never Say Die: The Complete Final Concert [CD2 o
DTITLE=f \n2)
DYEAR=1900
DGENRE=
TTITLE0=I'm A Ramblin' Man
TTITLE1=Help Me Make It Through The Night
TTITLE2=Havin' A Good Time
TTITLE3=Shakin' The Blues
TTITLE4=Nothing Catches Jesus By Surprise
TTITLE5=Never Been To Spain
TTITLE6=Drift Away
TTITLE7=I've Always Been Crazy
TTITLE8=Goin' Down Rockin'
TTITLE9=The Weight
TTITLE10=Can't You See
EXTD=www.waylon.com
EXTT0=With Montgomery Gentry
EXTT1=
EXTT2=
EXTT3=
EXTT4=
EXTT5=
EXTT6=
EXTT7=
EXTT8=
EXTT9=
EXTT10=
PLAYORDER=
